<svg class="svg-icon" style="width: 1em; height: 1em;vertical-align: middle;fill: currentColor;overflow: hidden;" viewBox="0 0 1024 1024" version="1.1" xmlns="http://www.w3.org/2000/svg"><path d="M906.752 851.968L756.224 701.44c50.688-62.976 80.896-143.36 80.896-230.4 0-203.264-165.376-368.64-368.64-368.64s-368.64 165.376-368.64 368.64 165.376 368.64 368.64 368.64c87.04 0 166.4-30.208 229.888-80.384l150.528 150.528c8.192 7.68 18.944 11.776 29.184 11.776s20.992-4.096 28.672-11.776c15.872-15.872 15.872-41.984 0-57.856zM181.76 471.04c0-158.208 128.512-286.72 286.72-286.72s286.72 128.512 286.72 286.72c0 77.824-31.232 148.48-81.92 200.192-1.024 1.024-2.048 1.536-2.56 2.56l-2.56 2.56c-51.712 50.176-122.368 81.408-199.68 81.408-158.208 0-286.72-128.512-286.72-286.72z"  /></svg>